<svg width="37" height="29" viewBox="0 0 37 29" fill="none" xmlns="http://www.w3.org/2000/svg">
<path d="M36.4879 15.3456L24.154 27.6795C23.0527 28.7808 21.1439 28.0099 21.1439 26.4314V19.3835H11.1593C10.1828 19.3835 9.39729 18.5979 9.39729 17.6215V10.5735C9.39729 9.59708 10.1828 8.81152 11.1593 8.81152H21.1439V1.76355C21.1439 0.192444 23.0454 -0.585769 24.154 0.515476L36.4879 12.8494C37.1707 13.5395 37.1707 14.6555 36.4879 15.3456ZM14.0959 27.3124V24.3758C14.0959 23.8912 13.6995 23.4948 13.2149 23.4948H7.04797C5.7485 23.4948 4.69865 22.4449 4.69865 21.1455V7.04953C4.69865 5.75006 5.7485 4.70021 7.04797 4.70021H13.2149C13.6995 4.70021 14.0959 4.30376 14.0959 3.81921V0.882558C14.0959 0.39801 13.6995 0.00156146 13.2149 0.00156146H7.04797C3.1569 0.00156146 0 3.15846 0 7.04953V21.1455C0 25.0365 3.1569 28.1934 7.04797 28.1934H13.2149C13.6995 28.1934 14.0959 27.797 14.0959 27.3124Z" fill="white"/>
</svg>
