<svg width="25" height="29" viewBox="0 0 25 29" fill="none" xmlns="http://www.w3.org/2000/svg">
<path d="M25 20.0893V1.33929C25 0.597098 24.4029 0 23.6607 0H5.35714C2.39955 0 0 2.39955 0 5.35714V23.2143C0 26.1719 2.39955 28.5714 5.35714 28.5714H23.6607C24.4029 28.5714 25 27.9743 25 27.2321V26.3393C25 25.9208 24.8047 25.5413 24.5033 25.2958C24.269 24.4364 24.269 21.9866 24.5033 21.1272C24.8047 20.8873 25 20.5078 25 20.0893ZM7.14286 7.47768C7.14286 7.29353 7.29353 7.14286 7.47768 7.14286H19.308C19.4922 7.14286 19.6429 7.29353 19.6429 7.47768V8.59375C19.6429 8.7779 19.4922 8.92857 19.308 8.92857H7.47768C7.29353 8.92857 7.14286 8.7779 7.14286 8.59375V7.47768ZM7.14286 11.0491C7.14286 10.865 7.29353 10.7143 7.47768 10.7143H19.308C19.4922 10.7143 19.6429 10.865 19.6429 11.0491V12.1652C19.6429 12.3493 19.4922 12.5 19.308 12.5H7.47768C7.29353 12.5 7.14286 12.3493 7.14286 12.1652V11.0491ZM21.2835 25H5.35714C4.36942 25 3.57143 24.202 3.57143 23.2143C3.57143 22.2321 4.375 21.4286 5.35714 21.4286H21.2835C21.1775 22.3828 21.1775 24.0458 21.2835 25Z" fill="white"/>
</svg>
