<svg width="30" height="30" viewBox="0 0 30 30" fill="none" xmlns="http://www.w3.org/2000/svg">
<path d="M29.1686 14.5843C29.1686 22.639 22.639 29.1686 14.5843 29.1686C6.52958 29.1686 0 22.639 0 14.5843C0 6.52958 6.52958 0 14.5843 0C22.639 0 29.1686 6.52958 29.1686 14.5843ZM12.8973 22.3065L23.7179 11.4859C24.0854 11.1185 24.0854 10.5227 23.7179 10.1553L22.3873 8.82467C22.0199 8.45718 21.4241 8.45718 21.0566 8.82467L12.232 17.6492L8.11198 13.5292C7.74455 13.1618 7.14877 13.1618 6.78128 13.5292L5.45064 14.8599C5.08321 15.2273 5.08321 15.8231 5.45064 16.1905L11.5666 22.3065C11.9341 22.674 12.5298 22.674 12.8973 22.3065Z" fill="white"/>
</svg>
