<svg width="43" height="30" viewBox="0 0 43 30" fill="none" xmlns="http://www.w3.org/2000/svg">
<path d="M6.30386 12.6077C8.62184 12.6077 10.5064 10.7231 10.5064 8.40514C10.5064 6.08716 8.62184 4.20257 6.30386 4.20257C3.98588 4.20257 2.10129 6.08716 2.10129 8.40514C2.10129 10.7231 3.98588 12.6077 6.30386 12.6077ZM35.7218 12.6077C38.0398 12.6077 39.9244 10.7231 39.9244 8.40514C39.9244 6.08716 38.0398 4.20257 35.7218 4.20257C33.4039 4.20257 31.5193 6.08716 31.5193 8.40514C31.5193 10.7231 33.4039 12.6077 35.7218 12.6077ZM37.8231 14.709H33.6206C32.4649 14.709 31.4208 15.1752 30.6591 15.9304C33.3054 17.3816 35.1834 20.0016 35.5905 23.1141H39.9244C41.0867 23.1141 42.0257 22.1751 42.0257 21.0129V18.9116C42.0257 16.5936 40.1411 14.709 37.8231 14.709ZM21.0129 14.709C25.0775 14.709 28.3673 11.4192 28.3673 7.3545C28.3673 3.28982 25.0775 0 21.0129 0C16.9482 0 13.6584 3.28982 13.6584 7.3545C13.6584 11.4192 16.9482 14.709 21.0129 14.709ZM26.0559 16.8103H25.5109C24.1451 17.4669 22.6282 17.8609 21.0129 17.8609C19.3975 17.8609 17.8872 17.4669 16.5148 16.8103H15.9698C11.7935 16.8103 8.40514 20.1986 8.40514 24.3749V26.2661C8.40514 28.0062 9.81694 29.418 11.5571 29.418H30.4686C32.2088 29.418 33.6206 28.0062 33.6206 26.2661V24.3749C33.6206 20.1986 30.2322 16.8103 26.0559 16.8103ZM11.3666 15.9304C10.6049 15.1752 9.56085 14.709 8.40514 14.709H4.20257C1.88459 14.709 0 16.5936 0 18.9116V21.0129C0 22.1751 0.939012 23.1141 2.10129 23.1141H6.42862C6.84231 20.0016 8.72033 17.3816 11.3666 15.9304Z" fill="white"/>
</svg>
