<svg width="30" height="30" viewBox="0 0 30 30" fill="none" xmlns="http://www.w3.org/2000/svg">
<path d="M14.5843 5.64553C11.4675 5.64553 8.93875 8.17425 8.93875 11.2911C8.93875 14.4079 11.4675 16.9366 14.5843 16.9366C17.7011 16.9366 20.2298 14.4079 20.2298 11.2911C20.2298 8.17425 17.7011 5.64553 14.5843 5.64553ZM14.5843 14.1138C13.0259 14.1138 11.7615 12.8495 11.7615 11.2911C11.7615 9.73265 13.0259 8.46829 14.5843 8.46829C16.1427 8.46829 17.407 9.73265 17.407 11.2911C17.407 12.8495 16.1427 14.1138 14.5843 14.1138ZM14.5843 0C6.52764 0 0 6.52764 0 14.5843C0 22.6409 6.52764 29.1686 14.5843 29.1686C22.6409 29.1686 29.1686 22.6409 29.1686 14.5843C29.1686 6.52764 22.6409 0 14.5843 0ZM14.5843 26.3458C11.6615 26.3458 8.99168 25.2696 6.93341 23.4995C7.80965 22.1469 9.30924 21.2295 11.0264 21.1766C12.2496 21.553 13.414 21.7412 14.5843 21.7412C15.7546 21.7412 16.9189 21.5589 18.1421 21.1766C19.8593 21.2354 21.3589 22.1469 22.2351 23.4995C20.1769 25.2696 17.507 26.3458 14.5843 26.3458ZM24.1523 21.4001C22.7174 19.5535 20.5003 18.348 17.9716 18.348C17.3718 18.348 16.4426 18.9125 14.5843 18.9125C12.7318 18.9125 11.7968 18.348 11.197 18.348C8.67412 18.348 6.45707 19.5535 5.01629 21.4001C3.64019 19.4771 2.82276 17.1248 2.82276 14.5843C2.82276 8.0978 8.0978 2.82276 14.5843 2.82276C21.0708 2.82276 26.3458 8.0978 26.3458 14.5843C26.3458 17.1248 25.5284 19.4771 24.1523 21.4001Z" fill="white"/>
</svg>
