<svg width="26" height="30" viewBox="0 0 26 30" fill="none" xmlns="http://www.w3.org/2000/svg">
<path d="M23.2143 0H2.78571C1.3 0 0 1.3 0 2.78571V26.9286C0 28.4143 1.3 29.7143 2.78571 29.7143H23.2143C24.7 29.7143 26 28.4143 26 26.9286V2.78571C26 1.3 24.7 0 23.2143 0ZM7.42857 25.2571C7.42857 25.6286 7.05714 26 6.68571 26H4.45714C4.08571 26 3.71429 25.6286 3.71429 25.2571V23.0286C3.71429 22.6571 4.08571 22.2857 4.45714 22.2857H6.68571C7.05714 22.2857 7.42857 22.6571 7.42857 23.0286V25.2571ZM7.42857 17.8286C7.42857 18.2 7.05714 18.5714 6.68571 18.5714H4.45714C4.08571 18.5714 3.71429 18.2 3.71429 17.8286V15.6C3.71429 15.2286 4.08571 14.8571 4.45714 14.8571H6.68571C7.05714 14.8571 7.42857 15.2286 7.42857 15.6V17.8286ZM14.8571 25.2571C14.8571 25.6286 14.4857 26 14.1143 26H11.8857C11.5143 26 11.1429 25.6286 11.1429 25.2571V23.0286C11.1429 22.6571 11.5143 22.2857 11.8857 22.2857H14.1143C14.4857 22.2857 14.8571 22.6571 14.8571 23.0286V25.2571ZM14.8571 17.8286C14.8571 18.2 14.4857 18.5714 14.1143 18.5714H11.8857C11.5143 18.5714 11.1429 18.2 11.1429 17.8286V15.6C11.1429 15.2286 11.5143 14.8571 11.8857 14.8571H14.1143C14.4857 14.8571 14.8571 15.2286 14.8571 15.6V17.8286ZM22.2857 25.2571C22.2857 25.6286 21.9143 26 21.5429 26H19.3143C18.9429 26 18.5714 25.6286 18.5714 25.2571V15.6C18.5714 15.2286 18.9429 14.8571 19.3143 14.8571H21.5429C21.9143 14.8571 22.2857 15.2286 22.2857 15.6V25.2571ZM22.2857 10.4C22.2857 10.7714 21.9143 11.1429 21.5429 11.1429H4.45714C4.08571 11.1429 3.71429 10.7714 3.71429 10.4V4.45714C3.71429 4.08571 4.08571 3.71429 4.45714 3.71429H21.5429C21.9143 3.71429 22.2857 4.08571 22.2857 4.45714V10.4Z" fill="white"/>
</svg>
